<svg version="1.1" id="Layer_1" xmlns="http://www.w3.org/2000/svg" xmlns:xlink="http://www.w3.org/1999/xlink" x="0px" y="0px"
	 width="100%" viewBox="0 0 424 424" enable-background="new 0 0 424 424" xml:space="preserve">
<path fill="#E24179" opacity="1.000000" stroke="none" 
	d="
M192.000000,1.000000 
	C205.687561,1.000000 219.375122,1.000000 233.737823,1.368816 
	C248.505585,2.695363 262.158752,5.793421 275.655853,9.860402 
	C298.393402,16.711752 319.197968,27.417973 338.428894,41.191963 
	C353.548462,52.021210 366.853424,64.950859 378.538422,79.331108 
	C390.304779,93.811508 400.572693,109.492043 407.295441,126.981758 
	C412.596649,140.773224 416.580597,155.077393 420.969971,169.209641 
	C422.579132,174.390533 423.671753,179.731857 425.000000,185.000000 
	C425.000000,185.000000 425.000000,185.500000 424.686523,185.867310 
	C424.582031,187.156403 424.791016,188.078201 425.000000,189.000000 
	C425.000000,204.687561 425.000000,220.375122 424.686523,236.648651 
	C424.582031,238.156403 424.791016,239.078201 425.000000,240.000000 
	C425.000000,240.444443 425.000000,240.888901 424.633789,241.808044 
	C423.519470,245.062973 422.510162,247.801971 422.064087,250.629822 
	C417.960876,276.643219 408.374756,300.595245 394.965515,323.114197 
	C382.437775,344.152771 366.399658,362.252136 347.582306,377.756348 
	C330.841614,391.549530 312.455292,403.024078 291.959045,410.310944 
	C278.496796,415.097076 264.458038,418.290344 250.615417,421.963043 
	C245.501663,423.319824 240.210327,424.007263 235.000000,425.000000 
	C220.645767,425.000000 206.291550,425.000000 191.265900,424.633240 
	C182.349579,422.988342 174.006317,422.152802 165.878784,420.346558 
	C144.058762,415.497345 123.604012,407.137207 104.316551,395.774048 
	C82.916504,383.166199 64.593849,367.005066 48.705860,348.081116 
	C36.128555,333.100494 26.118633,316.403259 18.260990,298.505737 
	C11.554942,283.231171 6.455753,267.422516 3.909764,250.847275 
	C3.444865,247.820618 1.995129,244.945221 1.000003,242.000000 
	C1.000000,241.555557 1.000000,241.111099 1.327575,240.193848 
	C1.436767,238.480698 1.218383,237.240356 1.000000,236.000000 
	C1.000000,220.979111 1.000000,205.958206 1.327575,190.329193 
	C1.436767,188.480698 1.218384,187.240356 1.000000,186.000000 
	C1.000000,185.555557 1.000000,185.111099 1.366200,184.191971 
	C2.144562,183.033401 2.836445,182.384750 2.927723,181.660431 
	C4.896662,166.036057 9.049665,151.030197 14.797615,136.361679 
	C27.749805,103.308273 47.475697,75.225822 74.372192,51.959625 
	C92.044518,36.672588 111.528015,24.422165 133.231903,16.185787 
	C146.862106,11.013288 161.262955,7.828388 175.398361,4.052306 
	C180.817337,2.604700 186.459518,1.992743 192.000000,1.000000 
M108.008865,39.491447 
	C98.337463,46.494122 88.008598,52.756313 79.123802,60.644924 
	C56.727448,80.530144 39.130165,104.145699 27.026724,131.725677 
	C17.329851,153.821838 11.774910,176.950684 10.116835,200.918488 
	C8.859199,219.097855 10.273672,237.301682 14.195260,255.081711 
	C21.763899,289.397095 37.032585,320.118683 60.224724,346.552307 
	C76.751396,365.388824 96.200119,380.911041 118.390709,392.684967 
	C143.703979,406.115753 170.891006,413.644043 199.370392,415.842957 
	C216.366577,417.155273 233.474426,416.120331 250.230164,412.774567 
	C272.114044,408.404846 292.966614,401.015106 312.468170,389.916992 
	C340.142609,374.167847 362.788147,352.960175 380.932434,326.972015 
	C393.561768,308.882935 403.132751,289.079803 408.410675,267.686737 
	C412.078217,252.821243 414.540619,237.487976 415.684143,222.224533 
	C416.589447,210.140411 415.506104,197.725204 413.779236,185.675827 
	C411.958618,172.972488 409.143982,160.271667 405.293976,148.032043 
	C399.584412,129.880615 390.726562,113.094353 379.807770,97.429077 
	C368.574554,81.312653 355.266296,67.036209 340.031769,54.810825 
	C325.871552,43.447567 310.415527,33.965420 293.565857,26.734011 
	C271.369720,17.208021 248.289597,11.580769 224.301773,10.144358 
	C209.305389,9.246361 194.317993,10.250546 179.383057,12.851870 
	C154.116913,17.252651 130.530945,25.798954 108.008865,39.491447 
z"/>
<path fill="#FFFFFF" opacity="1.000000" stroke="none" 
	d="
M191.531342,1.000000 
	C186.459518,1.992743 180.817337,2.604700 175.398361,4.052306 
	C161.262955,7.828388 146.862106,11.013288 133.231903,16.185787 
	C111.528015,24.422165 92.044518,36.672588 74.372192,51.959625 
	C47.475697,75.225822 27.749805,103.308273 14.797615,136.361679 
	C9.049665,151.030197 4.896662,166.036057 2.927723,181.660431 
	C2.836445,182.384750 2.144562,183.033401 1.366200,183.858643 
	C1.000000,123.071411 1.000000,62.142826 1.000000,1.000000 
	C64.354065,1.000000 127.708374,1.000000 191.531342,1.000000 
z"/>
<path fill="#FFFFFF" opacity="1.000000" stroke="none" 
	d="
M425.000000,184.531342 
	C423.671753,179.731857 422.579132,174.390533 420.969971,169.209641 
	C416.580597,155.077393 412.596649,140.773224 407.295441,126.981758 
	C400.572693,109.492043 390.304779,93.811508 378.538422,79.331108 
	C366.853424,64.950859 353.548462,52.021210 338.428894,41.191963 
	C319.197968,27.417973 298.393402,16.711752 275.655853,9.860402 
	C262.158752,5.793421 248.505585,2.695363 234.206482,1.368816 
	C297.592316,1.000000 361.184662,1.000000 425.000000,1.000000 
	C425.000000,62.020714 425.000000,123.041695 425.000000,184.531342 
z"/>
<path fill="#FFFFFF" opacity="1.000000" stroke="none" 
	d="
M1.000003,242.468658 
	C1.995129,244.945221 3.444865,247.820618 3.909764,250.847275 
	C6.455753,267.422516 11.554942,283.231171 18.260990,298.505737 
	C26.118633,316.403259 36.128555,333.100494 48.705860,348.081116 
	C64.593849,367.005066 82.916504,383.166199 104.316551,395.774048 
	C123.604012,407.137207 144.058762,415.497345 165.878784,420.346558 
	C174.006317,422.152802 182.349579,422.988342 190.797241,424.633240 
	C127.741020,425.000000 64.482040,425.000000 1.000000,425.000000 
	C1.000000,364.312622 1.000000,303.624969 1.000003,242.468658 
z"/>
<path fill="#FFFFFF" opacity="1.000000" stroke="none" 
	d="
M235.468658,425.000000 
	C240.210327,424.007263 245.501663,423.319824 250.615417,421.963043 
	C264.458038,418.290344 278.496796,415.097076 291.959045,410.310944 
	C312.455292,403.024078 330.841614,391.549530 347.582306,377.756348 
	C366.399658,362.252136 382.437775,344.152771 394.965515,323.114197 
	C408.374756,300.595245 417.960876,276.643219 422.064087,250.629822 
	C422.510162,247.801971 423.519470,245.062973 424.633789,242.141388 
	C425.000000,302.928406 425.000000,363.856781 425.000000,425.000000 
	C361.979279,425.000000 298.958282,425.000000 235.468658,425.000000 
z"/>
<path fill="#FFFFFF" opacity="1.000000" stroke="none" 
	d="
M1.000000,236.399979 
	C1.218383,237.240356 1.436767,238.480698 1.327575,239.860535 
	C1.000000,238.933319 1.000000,237.866638 1.000000,236.399979 
z"/>
<path fill="#FFFFFF" opacity="1.000000" stroke="none" 
	d="
M1.000000,186.399979 
	C1.218384,187.240356 1.436767,188.480698 1.327575,189.860535 
	C1.000000,188.933319 1.000000,187.866638 1.000000,186.399979 
z"/>
<path fill="#FFFFFF" opacity="1.000000" stroke="none" 
	d="
M425.000000,188.625000 
	C424.791016,188.078201 424.582031,187.156403 424.686523,186.117310 
	C425.000000,186.750000 425.000000,187.500000 425.000000,188.625000 
z"/>
<path fill="#FFFFFF" opacity="1.000000" stroke="none" 
	d="
M425.000000,239.625000 
	C424.791016,239.078201 424.582031,238.156403 424.686523,237.117310 
	C425.000000,237.750000 425.000000,238.500000 425.000000,239.625000 
z"/>
<path fill="#FFFFFF" opacity="1.000000" stroke="none" 
	d="
M108.318207,39.285564 
	C130.530945,25.798954 154.116913,17.252651 179.383057,12.851870 
	C194.317993,10.250546 209.305389,9.246361 224.301773,10.144358 
	C248.289597,11.580769 271.369720,17.208021 293.565857,26.734011 
	C310.415527,33.965420 325.871552,43.447567 340.031769,54.810825 
	C355.266296,67.036209 368.574554,81.312653 379.807770,97.429077 
	C390.726562,113.094353 399.584412,129.880615 405.293976,148.032043 
	C409.143982,160.271667 411.958618,172.972488 413.779236,185.675827 
	C415.506104,197.725204 416.589447,210.140411 415.684143,222.224533 
	C414.540619,237.487976 412.078217,252.821243 408.410675,267.686737 
	C403.132751,289.079803 393.561768,308.882935 380.932434,326.972015 
	C362.788147,352.960175 340.142609,374.167847 312.468170,389.916992 
	C292.966614,401.015106 272.114044,408.404846 250.230164,412.774567 
	C233.474426,416.120331 216.366577,417.155273 199.370392,415.842957 
	C170.891006,413.644043 143.703979,406.115753 118.390709,392.684967 
	C96.200119,380.911041 76.751396,365.388824 60.224724,346.552307 
	C37.032585,320.118683 21.763899,289.397095 14.195260,255.081711 
	C10.273672,237.301682 8.859199,219.097855 10.116835,200.918488 
	C11.774910,176.950684 17.329851,153.821838 27.026724,131.725677 
	C39.130165,104.145699 56.727448,80.530144 79.123802,60.644924 
	C88.008598,52.756313 98.337463,46.494122 108.318207,39.285564 
M54.971992,242.028381 
	C54.971992,242.028381 54.905628,242.060547 55.197792,242.677658 
	C74.818512,261.867645 111.983238,256.736389 122.147095,238.343262 
	C120.472267,237.208771 118.757317,236.047104 116.791740,234.310730 
	C115.565979,233.192993 114.340210,232.075256 112.817894,230.339508 
	C107.618591,225.115387 107.716202,225.224670 102.471466,229.909042 
	C100.578300,231.599945 98.231110,232.998398 95.850967,233.887299 
	C88.994606,236.447922 82.413162,234.877777 75.763718,231.281219 
	C74.832870,230.338531 73.950775,229.341125 72.963600,228.461655 
	C63.314274,219.865250 64.414688,197.357819 81.620110,192.000427 
	C91.312126,188.982544 99.267082,192.023865 106.556862,199.798889 
	C107.166306,199.616745 107.915787,199.601715 108.363441,199.226532 
	C112.644020,195.639160 116.981850,192.103622 121.002663,188.240356 
	C121.616585,187.650497 121.221581,184.914490 120.388237,184.118210 
	C117.802689,181.647659 114.997696,179.244675 111.889366,177.512665 
	C101.056656,171.476532 89.426582,169.404221 77.245682,172.100327 
	C63.987637,175.034836 53.297642,181.705658 47.263531,194.417740 
	C42.896168,203.618454 41.990669,213.416977 44.327740,223.134995 
	C45.541653,228.182693 48.824432,232.732849 51.248692,237.743607 
	C51.248692,237.743607 51.483791,237.821945 51.831535,238.339340 
	C52.867668,239.591171 53.903805,240.842987 54.971992,242.028381 
M367.993744,237.744400 
	C366.837250,236.830399 365.703064,235.159363 364.520691,235.124603 
	C356.529572,234.889587 348.528259,235.000641 340.530243,235.000061 
	C335.772278,234.999725 331.014313,235.000000 326.268738,235.000000 
	C326.268738,229.996735 326.268738,225.733093 326.268738,220.894806 
	C338.247650,220.894806 349.967957,220.894806 361.578278,220.894806 
	C361.578278,214.920761 361.578278,209.538330 361.578278,203.770950 
	C349.560577,203.770950 337.961182,203.770950 326.395630,203.770950 
	C326.395630,199.308289 326.395630,195.264526 326.395630,190.822113 
	C339.718048,190.822113 352.648804,190.822113 365.630432,190.822113 
	C365.630432,184.695618 365.630432,178.981644 365.630432,173.265656 
	C344.667969,173.265656 324.076202,173.265656 303.336975,173.265656 
	C303.336975,199.907532 303.336975,226.282578 303.336975,252.590698 
	C325.053680,252.590698 346.430878,252.590698 367.998840,252.590698 
	C367.998840,247.689606 367.998840,243.196838 367.993744,237.744400 
M182.527847,98.019981 
	C187.687775,100.346848 192.719101,103.041412 198.041794,104.902832 
	C204.018082,106.992813 210.338974,108.091705 216.333908,110.137589 
	C218.172928,110.765198 220.830017,113.306694 220.631210,114.586235 
	C220.331528,116.514954 218.147964,119.011314 216.232300,119.638321 
	C212.886429,120.733437 208.941895,121.497452 205.592621,120.783875 
	C197.728226,119.108337 190.067215,116.478073 181.601730,114.024940 
	C179.448837,118.614563 176.765015,124.336021 174.085876,130.047455 
	C187.042282,139.728989 214.681305,142.039291 229.318253,135.311249 
	C243.559525,128.765060 248.822922,111.984070 239.828796,99.705124 
	C235.316956,93.545532 227.990479,91.952827 221.060898,89.999954 
	C214.802948,88.236366 208.427094,86.791794 202.336990,84.566765 
	C198.259125,83.076904 198.063980,80.499565 201.036484,77.467056 
	C204.787292,73.640533 209.643188,73.321602 214.321411,74.304932 
	C219.854996,75.468048 225.262650,77.368156 230.588150,79.321602 
	C233.018845,80.213203 234.130661,80.051819 235.059235,77.498070 
	C236.395401,73.823364 238.225098,70.331039 239.661087,66.688705 
	C240.683731,64.094780 241.014801,61.815872 237.183838,60.895477 
	C231.987732,59.647106 226.996994,57.058086 221.768265,56.530872 
	C210.306519,55.375187 198.925125,55.115978 188.053589,60.863663 
	C174.249695,68.161644 172.143402,88.915550 182.527847,98.019981 
M223.163483,307.076996 
	C224.834610,307.732391 226.670029,308.134827 228.144867,309.092499 
	C231.976776,311.580780 234.564301,311.717438 235.963806,306.488129 
	C236.798645,303.368652 238.652664,300.536285 239.799667,297.481415 
	C240.710342,295.055969 240.832138,293.247467 237.454086,291.873260 
	C223.386169,286.150208 209.000046,284.946014 194.547211,289.145264 
	C178.726486,293.741943 172.905869,307.132202 177.155579,321.000916 
	C180.145142,330.757172 188.972595,333.502533 197.623749,335.964264 
	C203.888412,337.746826 210.307465,339.049225 216.445114,341.178436 
	C218.319580,341.828705 220.476471,344.419189 220.651764,346.294250 
	C220.779480,347.660431 218.103165,350.121185 216.258621,350.658783 
	C212.854568,351.650848 208.949890,352.497650 205.598938,351.784119 
	C197.729843,350.108521 190.064331,347.476868 181.513916,344.999634 
	C179.402924,349.719727 176.784164,355.575134 174.089111,361.601105 
	C191.609924,370.746979 209.344070,373.069275 227.797058,366.918915 
	C240.404984,362.716766 247.221558,348.643280 242.983795,336.358521 
	C240.514908,329.201508 234.841675,325.366943 228.190964,323.187042 
	C220.461624,320.653595 212.389038,319.170593 204.648834,316.665100 
	C202.451416,315.953827 200.893723,313.266174 199.042618,311.484924 
	C201.030090,309.676117 202.906311,306.494995 205.026505,306.323120 
	C210.741623,305.859772 216.560760,306.679230 223.163483,307.076996 
M312.500000,272.000000 
	C335.911774,272.000000 359.323578,272.000000 382.735352,272.000000 
	C382.728363,271.570007 382.721375,271.140015 382.714386,270.710022 
	C272.570129,270.710022 162.425858,270.710022 52.281586,270.710022 
	C52.281998,271.140015 52.282413,271.570007 52.282825,272.000000 
	C138.688553,272.000000 225.094269,272.000000 312.500000,272.000000 
M215.500000,156.000000 
	C271.241150,156.000000 326.982300,156.000000 382.723419,156.000000 
	C382.720490,155.562241 382.717529,155.124496 382.714569,154.686737 
	C272.570404,154.686737 162.426224,154.686737 52.282059,154.686737 
	C52.281940,155.124496 52.281826,155.562241 52.281708,156.000000 
	C106.354469,156.000000 160.427231,156.000000 215.500000,156.000000 
z"/>
<path fill="#E24179" opacity="1.000000" stroke="none" 
	d="
M367.996277,238.224243 
	C367.998840,243.196838 367.998840,247.689606 367.998840,252.590698 
	C346.430878,252.590698 325.053680,252.590698 303.336975,252.590698 
	C303.336975,226.282578 303.336975,199.907532 303.336975,173.265656 
	C324.076202,173.265656 344.667969,173.265656 365.630432,173.265656 
	C365.630432,178.981644 365.630432,184.695618 365.630432,190.822113 
	C352.648804,190.822113 339.718048,190.822113 326.395630,190.822113 
	C326.395630,195.264526 326.395630,199.308289 326.395630,203.770950 
	C337.961182,203.770950 349.560577,203.770950 361.578278,203.770950 
	C361.578278,209.538330 361.578278,214.920761 361.578278,220.894806 
	C349.967957,220.894806 338.247650,220.894806 326.268738,220.894806 
	C326.268738,225.733093 326.268738,229.996735 326.268738,235.000000 
	C331.014313,235.000000 335.772278,234.999725 340.530243,235.000061 
	C348.528259,235.000641 356.529572,234.889587 364.520691,235.124603 
	C365.703064,235.159363 366.837250,236.830399 367.996277,238.224243 
z"/>
<path fill="#E24179" opacity="1.000000" stroke="none" 
	d="
M182.266724,97.763718 
	C172.143402,88.915550 174.249695,68.161644 188.053589,60.863663 
	C198.925125,55.115978 210.306519,55.375187 221.768265,56.530872 
	C226.996994,57.058086 231.987732,59.647106 237.183838,60.895477 
	C241.014801,61.815872 240.683731,64.094780 239.661087,66.688705 
	C238.225098,70.331039 236.395401,73.823364 235.059235,77.498070 
	C234.130661,80.051819 233.018845,80.213203 230.588150,79.321602 
	C225.262650,77.368156 219.854996,75.468048 214.321411,74.304932 
	C209.643188,73.321602 204.787292,73.640533 201.036484,77.467056 
	C198.063980,80.499565 198.259125,83.076904 202.336990,84.566765 
	C208.427094,86.791794 214.802948,88.236366 221.060898,89.999954 
	C227.990479,91.952827 235.316956,93.545532 239.828796,99.705124 
	C248.822922,111.984070 243.559525,128.765060 229.318253,135.311249 
	C214.681305,142.039291 187.042282,139.728989 174.085876,130.047455 
	C176.765015,124.336021 179.448837,118.614563 181.601730,114.024940 
	C190.067215,116.478073 197.728226,119.108337 205.592621,120.783875 
	C208.941895,121.497452 212.886429,120.733437 216.232300,119.638321 
	C218.147964,119.011314 220.331528,116.514954 220.631210,114.586235 
	C220.830017,113.306694 218.172928,110.765198 216.333908,110.137589 
	C210.338974,108.091705 204.018082,106.992813 198.041794,104.902832 
	C192.719101,103.041412 187.687775,100.346848 182.266724,97.763718 
z"/>
<path fill="#E24179" opacity="1.000000" stroke="none" 
	d="
M222.751038,307.033264 
	C216.560760,306.679230 210.741623,305.859772 205.026505,306.323120 
	C202.906311,306.494995 201.030090,309.676117 199.042633,311.484924 
	C200.893723,313.266174 202.451416,315.953827 204.648834,316.665100 
	C212.389038,319.170593 220.461624,320.653595 228.190964,323.187042 
	C234.841675,325.366943 240.514908,329.201508 242.983795,336.358521 
	C247.221558,348.643280 240.404984,362.716766 227.797058,366.918915 
	C209.344070,373.069275 191.609924,370.746979 174.089111,361.601105 
	C176.784164,355.575134 179.402924,349.719727 181.513916,344.999634 
	C190.064331,347.476868 197.729843,350.108521 205.598938,351.784119 
	C208.949890,352.497650 212.854568,351.650848 216.258621,350.658783 
	C218.103165,350.121185 220.779480,347.660431 220.651764,346.294250 
	C220.476471,344.419189 218.319580,341.828705 216.445114,341.178436 
	C210.307465,339.049225 203.888412,337.746826 197.623749,335.964264 
	C188.972595,333.502533 180.145142,330.757172 177.155579,321.000916 
	C172.905869,307.132202 178.726486,293.741943 194.547211,289.145264 
	C209.000046,284.946014 223.386169,286.150208 237.454086,291.873260 
	C240.832138,293.247467 240.710342,295.055969 239.799667,297.481415 
	C238.652664,300.536285 236.798645,303.368652 235.963806,306.488129 
	C234.564301,311.717438 231.976776,311.580780 228.144867,309.092499 
	C226.670029,308.134827 224.834610,307.732391 222.751038,307.033264 
z"/>
<path fill="#E24179" opacity="1.000000" stroke="none" 
	d="
M113.114441,230.957520 
	C114.340210,232.075256 115.565979,233.192993 116.897797,234.981781 
	C115.985596,237.443726 115.393463,239.800903 113.882919,240.937622 
	C99.349472,251.874527 83.663292,253.739746 66.895294,246.484070 
	C62.991623,244.794907 58.906990,243.523941 54.905628,242.060547 
	C54.905628,242.060547 54.971992,242.028381 54.933380,241.689499 
	C53.757771,240.174393 52.620777,238.998169 51.483788,237.821945 
	C51.483791,237.821945 51.248692,237.743607 51.298157,237.240311 
	C51.134407,235.608887 51.090740,234.414703 50.681152,233.363068 
	C47.407539,224.957825 46.437649,216.383041 48.048298,207.442947 
	C50.598572,193.287323 58.491611,183.366562 71.844307,178.434235 
	C85.599449,173.353287 99.275536,174.507477 112.430878,181.168030 
	C117.349457,183.658295 117.317284,184.018173 113.565575,188.047562 
	C110.506569,191.332932 105.710419,193.560623 105.996887,199.162521 
	C99.267082,192.023865 91.312126,188.982544 81.620110,192.000427 
	C64.414688,197.357819 63.314274,219.865250 72.963600,228.461655 
	C73.950775,229.341125 74.832870,230.338531 75.932648,231.950470 
	C78.684471,234.632614 81.009544,237.782837 83.900185,238.438095 
	C91.564102,240.175400 98.986038,239.033524 105.579659,233.971039 
	C107.645012,232.385300 110.578392,231.930161 113.114441,230.957520 
z"/>
<path fill="#E24179" opacity="1.000000" stroke="none" 
	d="
M312.000000,272.000000 
	C225.094269,272.000000 138.688553,272.000000 52.282825,272.000000 
	C52.282413,271.570007 52.281998,271.140015 52.281586,270.710022 
	C162.425858,270.710022 272.570129,270.710022 382.714386,270.710022 
	C382.721375,271.140015 382.728363,271.570007 382.735352,272.000000 
	C359.323578,272.000000 335.911774,272.000000 312.000000,272.000000 
z"/>
<path fill="#E24179" opacity="1.000000" stroke="none" 
	d="
M215.000000,156.000000 
	C160.427231,156.000000 106.354469,156.000000 52.281708,156.000000 
	C52.281826,155.562241 52.281940,155.124496 52.282059,154.686737 
	C162.426224,154.686737 272.570404,154.686737 382.714569,154.686737 
	C382.717529,155.124496 382.720490,155.562241 382.723419,156.000000 
	C326.982300,156.000000 271.241150,156.000000 215.000000,156.000000 
z"/>
<path fill="#E24179" opacity="1.000000" stroke="none" 
	d="
M106.276871,199.480713 
	C105.710419,193.560623 110.506569,191.332932 113.565575,188.047562 
	C117.317284,184.018173 117.349457,183.658295 112.430878,181.168030 
	C99.275536,174.507477 85.599449,173.353287 71.844307,178.434235 
	C58.491611,183.366562 50.598572,193.287323 48.048298,207.442947 
	C46.437649,216.383041 47.407539,224.957825 50.681152,233.363068 
	C51.090740,234.414703 51.134407,235.608887 51.260124,237.122391 
	C48.824432,232.732849 45.541653,228.182693 44.327740,223.134995 
	C41.990669,213.416977 42.896168,203.618454 47.263531,194.417740 
	C53.297642,181.705658 63.987637,175.034836 77.245682,172.100327 
	C89.426582,169.404221 101.056656,171.476532 111.889366,177.512665 
	C114.997696,179.244675 117.802689,181.647659 120.388237,184.118210 
	C121.221581,184.914490 121.616585,187.650497 121.002663,188.240356 
	C116.981850,192.103622 112.644020,195.639160 108.363441,199.226532 
	C107.915787,199.601715 107.166306,199.616745 106.276871,199.480713 
z"/>
<path fill="#E24179" opacity="1.000000" stroke="none" 
	d="
M55.051712,242.369110 
	C58.906990,243.523941 62.991623,244.794907 66.895294,246.484070 
	C83.663292,253.739746 99.349472,251.874527 113.882919,240.937622 
	C115.393463,239.800903 115.985596,237.443726 117.023117,235.269135 
	C118.757317,236.047104 120.472267,237.208771 122.147095,238.343262 
	C111.983238,256.736389 74.818512,261.867645 55.051712,242.369110 
z"/>
<path fill="#E24179" opacity="1.000000" stroke="none" 
	d="
M112.966171,230.648499 
	C110.578392,231.930161 107.645012,232.385300 105.579659,233.971039 
	C98.986038,239.033524 91.564102,240.175400 83.900185,238.438095 
	C81.009544,237.782837 78.684471,234.632614 76.071762,232.252350 
	C82.413162,234.877777 88.994606,236.447922 95.850967,233.887299 
	C98.231110,232.998398 100.578300,231.599945 102.471466,229.909042 
	C107.716202,225.224670 107.618591,225.115387 112.966171,230.648499 
z"/>
<path fill="#E24179" opacity="1.000000" stroke="none" 
	d="
M51.657661,238.080643 
	C52.620777,238.998169 53.757771,240.174393 54.917351,241.722717 
	C53.903805,240.842987 52.867668,239.591171 51.657661,238.080643 
z"/>
</svg>